<svg width="335" height="41" viewBox="0 0 335 41" fill="none" xmlns="http://www.w3.org/2000/svg">
<path d="M6.47719 25.56H15.6772V30H0.877188V2.08H6.47719V25.56ZM39.8366 18.44C39.8366 19.24 39.7832 19.96 39.6766 20.6H23.4766C23.6099 22.2 24.1699 23.4533 25.1566 24.36C26.1432 25.2667 27.3566 25.72 28.7966 25.72C30.8766 25.72 32.3566 24.8267 33.2366 23.04H39.2766C38.6366 25.1733 37.4099 26.9333 35.5966 28.32C33.7832 29.68 31.5566 30.36 28.9166 30.36C26.7832 30.36 24.8632 29.8933 23.1566 28.96C21.4766 28 20.1566 26.6533 19.1966 24.92C18.2632 23.1867 17.7966 21.1867 17.7966 18.92C17.7966 16.6267 18.2632 14.6133 19.1966 12.88C20.1299 11.1467 21.4366 9.81333 23.1166 8.88C24.7966 7.94667 26.7299 7.48 28.9166 7.48C31.0232 7.48 32.9032 7.93333 34.5566 8.84C36.2366 9.74667 37.5299 11.04 38.4366 12.72C39.3699 14.3733 39.8366 16.28 39.8366 18.44ZM34.0366 16.84C34.0099 15.4 33.4899 14.2533 32.4766 13.4C31.4632 12.52 30.2232 12.08 28.7566 12.08C27.3699 12.08 26.1966 12.5067 25.2366 13.36C24.3032 14.1867 23.7299 15.3467 23.5166 16.84H34.0366ZM50.4441 12.44V23.16C50.4441 23.9067 50.6174 24.4533 50.9641 24.8C51.3374 25.12 51.9507 25.28 52.8041 25.28H55.4041V30H51.8841C47.1641 30 44.8041 27.7067 44.8041 23.12V12.44H42.1641V7.84H44.8041V2.36H50.4441V7.84H55.4041V12.44H50.4441ZM60.5519 2.08H66.4319L62.1119 12.16H58.2719L60.5519 2.08ZM78.9275 30.36C77.1142 30.36 75.4875 30.04 74.0475 29.4C72.6075 28.7333 71.4608 27.84 70.6075 26.72C69.7808 25.6 69.3275 24.36 69.2475 23H74.8875C74.9942 23.8533 75.4075 24.56 76.1275 25.12C76.8742 25.68 77.7942 25.96 78.8875 25.96C79.9542 25.96 80.7808 25.7467 81.3675 25.32C81.9808 24.8933 82.2875 24.3467 82.2875 23.68C82.2875 22.96 81.9142 22.4267 81.1675 22.08C80.4475 21.7067 79.2875 21.3067 77.6875 20.88C76.0342 20.48 74.6742 20.0667 73.6075 19.64C72.5675 19.2133 71.6608 18.56 70.8875 17.68C70.1408 16.8 69.7675 15.6133 69.7675 14.12C69.7675 12.8933 70.1142 11.7733 70.8075 10.76C71.5275 9.74666 72.5408 8.94667 73.8475 8.36C75.1808 7.77333 76.7408 7.48 78.5275 7.48C81.1675 7.48 83.2742 8.14667 84.8475 9.48C86.4208 10.7867 87.2875 12.56 87.4475 14.8H82.0875C82.0075 13.92 81.6342 13.2267 80.9675 12.72C80.3275 12.1867 79.4608 11.92 78.3675 11.92C77.3542 11.92 76.5675 12.1067 76.0075 12.48C75.4742 12.8533 75.2075 13.3733 75.2075 14.04C75.2075 14.7867 75.5808 15.36 76.3275 15.76C77.0742 16.1333 78.2342 16.52 79.8075 16.92C81.4075 17.32 82.7275 17.7333 83.7675 18.16C84.8075 18.5867 85.7008 19.2533 86.4475 20.16C87.2208 21.04 87.6208 22.2133 87.6475 23.68C87.6475 24.96 87.2875 26.1067 86.5675 27.12C85.8742 28.1333 84.8608 28.9333 83.5275 29.52C82.2208 30.08 80.6875 30.36 78.9275 30.36ZM110.456 7.48C112.109 7.48 113.562 7.81333 114.816 8.48C116.069 9.12 117.056 9.96 117.776 11V7.84H123.416V30.16C123.416 32.2133 123.002 34.04 122.176 35.64C121.349 37.2667 120.109 38.5467 118.456 39.48C116.802 40.44 114.802 40.92 112.456 40.92C109.309 40.92 106.722 40.1867 104.696 38.72C102.696 37.2533 101.562 35.2533 101.296 32.72H106.856C107.149 33.7333 107.776 34.5333 108.736 35.12C109.722 35.7333 110.909 36.04 112.296 36.04C113.922 36.04 115.242 35.5467 116.256 34.56C117.269 33.6 117.776 32.1333 117.776 30.16V26.72C117.056 27.76 116.056 28.6267 114.776 29.32C113.522 30.0133 112.082 30.36 110.456 30.36C108.589 30.36 106.882 29.88 105.336 28.92C103.789 27.96 102.562 26.6133 101.656 24.88C100.776 23.12 100.336 21.1067 100.336 18.84C100.336 16.6 100.776 14.6133 101.656 12.88C102.562 11.1467 103.776 9.81333 105.296 8.88C106.842 7.94667 108.562 7.48 110.456 7.48ZM117.776 18.92C117.776 17.56 117.509 16.4 116.976 15.44C116.442 14.4533 115.722 13.7067 114.816 13.2C113.909 12.6667 112.936 12.4 111.896 12.4C110.856 12.4 109.896 12.6533 109.016 13.16C108.136 13.6667 107.416 14.4133 106.856 15.4C106.322 16.36 106.056 17.5067 106.056 18.84C106.056 20.1733 106.322 21.3467 106.856 22.36C107.416 23.3467 108.136 24.1067 109.016 24.64C109.922 25.1733 110.882 25.44 111.896 25.44C112.936 25.44 113.909 25.1867 114.816 24.68C115.722 24.1467 116.442 23.4 116.976 22.44C117.509 21.4533 117.776 20.28 117.776 18.92ZM149.485 18.44C149.485 19.24 149.432 19.96 149.325 20.6H133.125C133.258 22.2 133.818 23.4533 134.805 24.36C135.792 25.2667 137.005 25.72 138.445 25.72C140.525 25.72 142.005 24.8267 142.885 23.04H148.925C148.285 25.1733 147.058 26.9333 145.245 28.32C143.432 29.68 141.205 30.36 138.565 30.36C136.432 30.36 134.512 29.8933 132.805 28.96C131.125 28 129.805 26.6533 128.845 24.92C127.912 23.1867 127.445 21.1867 127.445 18.92C127.445 16.6267 127.912 14.6133 128.845 12.88C129.778 11.1467 131.085 9.81333 132.765 8.88C134.445 7.94667 136.378 7.48 138.565 7.48C140.672 7.48 142.552 7.93333 144.205 8.84C145.885 9.74667 147.178 11.04 148.085 12.72C149.018 14.3733 149.485 16.28 149.485 18.44ZM143.685 16.84C143.658 15.4 143.138 14.2533 142.125 13.4C141.112 12.52 139.872 12.08 138.405 12.08C137.018 12.08 135.845 12.5067 134.885 13.36C133.952 14.1867 133.378 15.3467 133.165 16.84H143.685ZM160.093 12.44V23.16C160.093 23.9067 160.266 24.4533 160.613 24.8C160.986 25.12 161.599 25.28 162.453 25.28H165.053V30H161.533C156.813 30 154.453 27.7067 154.453 23.12V12.44H151.813V7.84H154.453V2.36H160.093V7.84H165.053V12.44H160.093ZM187.092 30.36C185.278 30.36 183.652 30.04 182.212 29.4C180.772 28.7333 179.625 27.84 178.772 26.72C177.945 25.6 177.492 24.36 177.412 23H183.052C183.158 23.8533 183.572 24.56 184.292 25.12C185.038 25.68 185.958 25.96 187.052 25.96C188.118 25.96 188.945 25.7467 189.532 25.32C190.145 24.8933 190.452 24.3467 190.452 23.68C190.452 22.96 190.078 22.4267 189.332 22.08C188.612 21.7067 187.452 21.3067 185.852 20.88C184.198 20.48 182.838 20.0667 181.772 19.64C180.732 19.2133 179.825 18.56 179.052 17.68C178.305 16.8 177.932 15.6133 177.932 14.12C177.932 12.8933 178.278 11.7733 178.972 10.76C179.692 9.74666 180.705 8.94667 182.012 8.36C183.345 7.77333 184.905 7.48 186.692 7.48C189.332 7.48 191.438 8.14667 193.012 9.48C194.585 10.7867 195.452 12.56 195.612 14.8H190.252C190.172 13.92 189.798 13.2267 189.132 12.72C188.492 12.1867 187.625 11.92 186.532 11.92C185.518 11.92 184.732 12.1067 184.172 12.48C183.638 12.8533 183.372 13.3733 183.372 14.04C183.372 14.7867 183.745 15.36 184.492 15.76C185.238 16.1333 186.398 16.52 187.972 16.92C189.572 17.32 190.892 17.7333 191.932 18.16C192.972 18.5867 193.865 19.2533 194.612 20.16C195.385 21.04 195.785 22.2133 195.812 23.68C195.812 24.96 195.452 26.1067 194.732 27.12C194.038 28.1333 193.025 28.9333 191.692 29.52C190.385 30.08 188.852 30.36 187.092 30.36ZM206.928 12.44V23.16C206.928 23.9067 207.102 24.4533 207.448 24.8C207.822 25.12 208.435 25.28 209.288 25.28H211.888V30H208.368C203.648 30 201.288 27.7067 201.288 23.12V12.44H198.648V7.84H201.288V2.36H206.928V7.84H211.888V12.44H206.928ZM214.476 18.84C214.476 16.6 214.916 14.6133 215.796 12.88C216.703 11.1467 217.916 9.81333 219.436 8.88C220.983 7.94667 222.703 7.48 224.596 7.48C226.25 7.48 227.69 7.81333 228.916 8.48C230.17 9.14667 231.17 9.98667 231.916 11V7.84H237.556V30H231.916V26.76C231.196 27.8 230.196 28.6667 228.916 29.36C227.663 30.0267 226.21 30.36 224.556 30.36C222.69 30.36 220.983 29.88 219.436 28.92C217.916 27.96 216.703 26.6133 215.796 24.88C214.916 23.12 214.476 21.1067 214.476 18.84ZM231.916 18.92C231.916 17.56 231.65 16.4 231.116 15.44C230.583 14.4533 229.863 13.7067 228.956 13.2C228.05 12.6667 227.076 12.4 226.036 12.4C224.996 12.4 224.036 12.6533 223.156 13.16C222.276 13.6667 221.556 14.4133 220.996 15.4C220.463 16.36 220.196 17.5067 220.196 18.84C220.196 20.1733 220.463 21.3467 220.996 22.36C221.556 23.3467 222.276 24.1067 223.156 24.64C224.063 25.1733 225.023 25.44 226.036 25.44C227.076 25.44 228.05 25.1867 228.956 24.68C229.863 24.1467 230.583 23.4 231.116 22.44C231.65 21.4533 231.916 20.28 231.916 18.92ZM248.626 11.28C249.346 10.1067 250.279 9.18667 251.426 8.52C252.599 7.85333 253.932 7.52 255.426 7.52V13.4H253.946C252.186 13.4 250.852 13.8133 249.946 14.64C249.066 15.4667 248.626 16.9067 248.626 18.96V30H243.026V7.84H248.626V11.28ZM265.718 12.44V23.16C265.718 23.9067 265.891 24.4533 266.238 24.8C266.611 25.12 267.224 25.28 268.078 25.28H270.678V30H267.158C262.438 30 260.078 27.7067 260.078 23.12V12.44H257.438V7.84H260.078V2.36H265.718V7.84H270.678V12.44H265.718ZM295.305 18.44C295.305 19.24 295.252 19.96 295.145 20.6H278.945C279.079 22.2 279.639 23.4533 280.625 24.36C281.612 25.2667 282.825 25.72 284.265 25.72C286.345 25.72 287.825 24.8267 288.705 23.04H294.745C294.105 25.1733 292.879 26.9333 291.065 28.32C289.252 29.68 287.025 30.36 284.385 30.36C282.252 30.36 280.332 29.8933 278.625 28.96C276.945 28 275.625 26.6533 274.665 24.92C273.732 23.1867 273.265 21.1867 273.265 18.92C273.265 16.6267 273.732 14.6133 274.665 12.88C275.599 11.1467 276.905 9.81333 278.585 8.88C280.265 7.94667 282.199 7.48 284.385 7.48C286.492 7.48 288.372 7.93333 290.025 8.84C291.705 9.74667 292.999 11.04 293.905 12.72C294.839 14.3733 295.305 16.28 295.305 18.44ZM289.505 16.84C289.479 15.4 288.959 14.2533 287.945 13.4C286.932 12.52 285.692 12.08 284.225 12.08C282.839 12.08 281.665 12.5067 280.705 13.36C279.772 14.1867 279.199 15.3467 278.985 16.84H289.505ZM297.953 18.84C297.953 16.6 298.393 14.6133 299.273 12.88C300.179 11.1467 301.406 9.81333 302.953 8.88C304.499 7.94667 306.219 7.48 308.113 7.48C309.553 7.48 310.926 7.8 312.233 8.44C313.539 9.05333 314.579 9.88 315.353 10.92V0.4H321.033V30H315.353V26.72C314.659 27.8133 313.686 28.6933 312.433 29.36C311.179 30.0267 309.726 30.36 308.073 30.36C306.206 30.36 304.499 29.88 302.953 28.92C301.406 27.96 300.179 26.6133 299.273 24.88C298.393 23.12 297.953 21.1067 297.953 18.84ZM315.393 18.92C315.393 17.56 315.126 16.4 314.593 15.44C314.059 14.4533 313.339 13.7067 312.433 13.2C311.526 12.6667 310.553 12.4 309.513 12.4C308.473 12.4 307.513 12.6533 306.633 13.16C305.753 13.6667 305.033 14.4133 304.473 15.4C303.939 16.36 303.673 17.5067 303.673 18.84C303.673 20.1733 303.939 21.3467 304.473 22.36C305.033 23.3467 305.753 24.1067 306.633 24.64C307.539 25.1733 308.499 25.44 309.513 25.44C310.553 25.44 311.526 25.1867 312.433 24.68C313.339 24.1467 314.059 23.4 314.593 22.44C315.126 21.4533 315.393 20.28 315.393 18.92ZM333.742 1.6L333.102 20.92H328.382L327.702 1.6H333.742ZM330.862 30.28C329.849 30.28 329.009 29.9733 328.342 29.36C327.702 28.72 327.382 27.9333 327.382 27C327.382 26.0667 327.702 25.2933 328.342 24.68C329.009 24.04 329.849 23.72 330.862 23.72C331.849 23.72 332.662 24.04 333.302 24.68C333.942 25.2933 334.262 26.0667 334.262 27C334.262 27.9333 333.942 28.72 333.302 29.36C332.662 29.9733 331.849 30.28 330.862 30.28Z" fill="#4C74D9"/>
</svg>
