<svg width="22" height="23" viewBox="0 0 22 23" fill="none" xmlns="http://www.w3.org/2000/svg">
<path d="M17.4167 0.5H4.58333C3.3682 0.501456 2.20326 0.984808 1.34403 1.84403C0.484808 2.70326 0.00145554 3.8682 0 5.08333L0 17.9167C0.00145554 19.1318 0.484808 20.2967 1.34403 21.156C2.20326 22.0152 3.3682 22.4985 4.58333 22.5H17.4167C18.6318 22.4985 19.7967 22.0152 20.656 21.156C21.5152 20.2967 21.9985 19.1318 22 17.9167V5.08333C21.9985 3.8682 21.5152 2.70326 20.656 1.84403C19.7967 0.984808 18.6318 0.501456 17.4167 0.5V0.5ZM6.41667 20.6667V19.75C6.41667 18.5344 6.89955 17.3686 7.75909 16.5091C8.61864 15.6496 9.78442 15.1667 11 15.1667C12.2156 15.1667 13.3814 15.6496 14.2409 16.5091C15.1004 17.3686 15.5833 18.5344 15.5833 19.75V20.6667H6.41667ZM20.1667 17.9167C20.1667 18.646 19.8769 19.3455 19.3612 19.8612C18.8455 20.3769 18.146 20.6667 17.4167 20.6667V19.75C17.4167 18.0482 16.7406 16.4161 15.5373 15.2127C14.3339 14.0094 12.7018 13.3333 11 13.3333C9.29819 13.3333 7.66609 14.0094 6.46273 15.2127C5.25937 16.4161 4.58333 18.0482 4.58333 19.75V20.6667C3.85399 20.6667 3.15451 20.3769 2.63879 19.8612C2.12306 19.3455 1.83333 18.646 1.83333 17.9167V5.08333C1.83333 4.35399 2.12306 3.65451 2.63879 3.13879C3.15451 2.62306 3.85399 2.33333 4.58333 2.33333H17.4167C18.146 2.33333 18.8455 2.62306 19.3612 3.13879C19.8769 3.65451 20.1667 4.35399 20.1667 5.08333V17.9167Z" fill="#4C74D9"/>
</svg>
