<svg width="158" height="83" viewBox="0 0 158 83" fill="none" xmlns="http://www.w3.org/2000/svg">
<path d="M4.16 63V31.256H11.392L12.096 35.544C13.12 34.008 14.464 32.792 16.128 31.896C17.8347 30.9573 19.7973 30.488 22.016 30.488C26.9227 30.488 30.4 32.3867 32.448 36.184C33.6 34.4347 35.136 33.048 37.056 32.024C39.0187 31 41.152 30.488 43.456 30.488C47.5947 30.488 50.7733 31.7253 52.992 34.2C55.2107 36.6747 56.32 40.3013 56.32 45.08V63H48.128V45.848C48.128 43.1173 47.5947 41.0267 46.528 39.576C45.504 38.1253 43.904 37.4 41.728 37.4C39.5093 37.4 37.7173 38.2107 36.352 39.832C35.0293 41.4533 34.368 43.7147 34.368 46.616V63H26.176V45.848C26.176 43.1173 25.6427 41.0267 24.576 39.576C23.5093 38.1253 21.8667 37.4 19.648 37.4C17.472 37.4 15.7013 38.2107 14.336 39.832C13.0133 41.4533 12.352 43.7147 12.352 46.616V63H4.16Z" fill="#4C74D9"/>
<path d="M149.304 63C145.976 63 143.309 62.1893 141.304 60.568C139.299 58.9467 138.296 56.0667 138.296 51.928V38.104H132.856V31.256H138.296L139.256 22.744H146.488V31.256H155.064V38.104H146.488V51.992C146.488 53.528 146.808 54.5947 147.448 55.192C148.131 55.7467 149.283 56.024 150.904 56.024H154.872V63H149.304Z" fill="#4C74D9"/>
<path fill-rule="evenodd" clip-rule="evenodd" d="M94.9537 56.1328C91.6645 60.5928 86.4059 63.481 80.48 63.481C77.7224 63.481 75.1092 62.8555 72.7718 61.7373C70.5437 61.361 67.6054 61.1834 64.2485 61.91C62.5165 62.2848 61.0835 62.5724 60.4551 62.2915C59.7791 61.9894 59.9836 61.0893 60.2564 60.7054L64.0509 52.7903C63.0149 50.4897 62.4378 47.9332 62.4378 45.2405C62.4378 35.1666 70.5156 27 80.48 27C86.4059 27 91.6645 29.8883 94.9537 34.3483C92.712 37.3879 91.3851 41.1576 91.3851 45.2406C91.3851 49.3235 92.712 53.0932 94.9537 56.1328Z" fill="#4C74D9"/>
<path fill-rule="evenodd" clip-rule="evenodd" d="M111.52 63.4811C101.555 63.4811 93.4777 55.3145 93.4777 45.2406C93.4777 35.1666 101.555 27 111.52 27C121.484 27 129.562 35.1666 129.562 45.2406C129.562 47.9333 128.985 50.4897 127.949 52.7903L131.743 60.7055C132.016 61.0893 132.221 61.9894 131.545 62.2916C130.916 62.5725 129.483 62.2849 127.751 61.91C124.394 61.1835 121.456 61.3611 119.228 61.7373C116.891 62.8556 114.278 63.4811 111.52 63.4811Z" fill="#4C74D9"/>
<circle cx="72.8869" cy="45.4389" r="1.7844" fill="white"/>
<circle cx="80.4221" cy="45.4389" r="1.7844" fill="white"/>
<circle cx="87.9553" cy="45.4389" r="1.7844" fill="white"/>
<circle cx="103.817" cy="45.4389" r="1.7844" fill="white"/>
<circle cx="111.351" cy="45.4389" r="1.7844" fill="white"/>
<circle cx="118.885" cy="45.4389" r="1.7844" fill="white"/>
</svg>
