<svg width="288" height="328" viewBox="0 0 288 328" fill="none" xmlns="http://www.w3.org/2000/svg">
<path d="M43.9484 100.689C43.0576 102.713 42.0757 104.9 41.2153 107.036C40.3549 109.171 39.4642 111.368 38.6848 113.554C37.0856 117.817 35.8033 122.191 34.8484 126.642L34.5549 128.262L34.4537 128.869C34.4537 129.041 34.4537 129.264 34.3929 129.466C34.3544 130.452 34.3747 131.439 34.4537 132.422C34.646 134.558 34.9901 136.846 35.4659 139.133C36.3162 143.719 37.3992 148.446 38.5026 153.102L33.3098 155.126C30.8892 150.714 28.8278 146.114 27.1454 141.37C26.259 138.902 25.5421 136.375 24.9995 133.809C24.6955 132.389 24.5059 130.947 24.4326 129.497C24.4326 129.092 24.4326 128.707 24.4326 128.272C24.4326 127.837 24.4326 127.351 24.5035 127.068L24.7059 125.043C25.0084 122.436 25.4715 119.85 26.0927 117.3C26.6595 114.769 27.3883 112.309 28.1171 109.88C28.8459 107.451 29.7569 105.062 30.7185 102.713C31.1943 101.539 31.7308 100.375 32.1964 99.211C32.662 98.047 33.2086 96.9335 33.8564 95.6885L43.9484 100.689Z" fill="#E4897B"/>
<path d="M38.2276 151.735L42.1752 155.592L33.5612 159.641C33.5612 159.641 31.476 155.987 32.9235 152.687L38.2276 151.735Z" fill="#E4897B"/>
<path d="M45.3667 161.33L38.0888 164.306L33.5742 159.599L42.1781 155.59L45.3667 161.33Z" fill="#E4897B"/>
<path opacity="0.4" d="M192.796 157.18C178.474 155.572 164.95 149.754 153.935 140.461C142.919 131.168 134.906 118.818 130.908 104.971C126.91 91.1245 127.107 76.4036 131.475 62.6692C135.842 48.9348 144.184 36.8037 155.445 27.8093C166.706 18.815 180.381 13.3613 194.741 12.1377C209.101 10.9141 223.501 13.9755 236.121 20.935C248.742 27.8944 259.015 38.4394 265.644 51.2369C272.272 64.0343 274.957 78.5096 273.359 92.8329C272.298 102.349 269.372 111.563 264.748 119.948C260.124 128.333 253.893 135.725 246.412 141.7C238.93 147.676 230.344 152.119 221.144 154.775C211.945 157.431 202.312 158.249 192.796 157.18V157.18Z" fill="#FAFAFA"/>
<path opacity="0.4" d="M245.815 27.3317L134.976 115.891C134.511 114.879 134.055 113.867 133.63 112.855C130.851 106.245 129.074 99.2582 128.356 92.1244V92.1244L224.093 15.6304C231.953 18.2522 239.301 22.2107 245.815 27.3317V27.3317Z" fill="#FAFAFA"/>
<path opacity="0.4" d="M271.396 66.1319L167.187 149.388C157.287 144.227 148.708 136.856 142.114 127.847L255.899 36.9292C263.233 45.3478 268.535 55.3391 271.396 66.1319Z" fill="#FAFAFA"/>
<path d="M118.883 56.8991L117.922 56.5752C119.587 51.6608 121.681 46.902 124.177 42.3534L125.058 42.8393C122.594 47.337 120.528 52.0415 118.883 56.8991ZM131.172 33.2737L130.352 32.6765C138.671 21.4285 149.558 12.3322 162.106 6.14605L162.561 7.05706C150.156 13.1794 139.394 22.1784 131.172 33.3041V33.2737ZM242.102 8.4438C238.794 6.66962 235.372 5.11749 231.858 3.79769L232.223 2.84619C235.771 4.19696 239.227 5.77944 242.567 7.58341L242.102 8.4438Z" fill="#4C74D9"/>
<path opacity="0.3" d="M118.883 56.8991L117.922 56.5752C119.587 51.6608 121.681 46.902 124.177 42.3534L125.058 42.8393C122.594 47.337 120.528 52.0415 118.883 56.8991ZM131.172 33.2737L130.352 32.6765C138.671 21.4285 149.558 12.3322 162.106 6.14605L162.561 7.05706C150.156 13.1794 139.394 22.1784 131.172 33.3041V33.2737ZM242.102 8.4438C238.794 6.66962 235.372 5.11749 231.858 3.79769L232.223 2.84619C235.771 4.19696 239.227 5.77944 242.567 7.58341L242.102 8.4438Z" fill="black"/>
<path d="M276.265 47.5264C266.892 28.0869 250.398 12.9997 230.202 5.39251C210.006 -2.21467 187.657 -1.75839 167.789 6.66674C147.92 15.0919 132.055 30.8397 123.484 50.6455C114.912 70.4514 114.291 92.7962 121.748 113.048C114.987 115.416 108.306 117.957 101.666 120.579C92.0902 124.378 82.6023 128.346 73.2021 132.483C63.8086 136.643 54.4556 140.884 45.1937 145.318C40.5476 147.494 35.9622 149.792 31.3364 152.019C28.9299 153.053 26.7496 154.549 24.9188 156.422C23.9282 157.459 23.0557 158.603 22.3174 159.833C21.4166 161.288 20.7345 162.867 20.293 164.52C19.5313 167.498 19.8607 170.651 21.2215 173.408C22.5824 176.165 24.8849 178.344 27.7126 179.551C29.2828 180.21 30.9396 180.639 32.632 180.827C34.0614 180.988 35.5046 180.988 36.934 180.827C39.5316 180.511 42.0421 179.689 44.3232 178.407C48.9086 176.089 53.5244 173.852 58.0794 171.474C67.1894 166.827 76.2995 161.979 85.2982 157.059C94.2969 152.14 103.306 146.988 112.092 141.704C118.165 138.03 124.299 134.274 130.312 130.347C141.858 148.574 159.973 161.66 180.905 166.894C201.836 172.128 223.979 169.109 242.745 158.461C261.51 147.814 275.461 130.356 281.705 109.703C287.949 89.0503 286.009 66.7871 276.285 47.5264H276.265ZM230.249 144.224C218.486 150.031 205.265 152.219 192.258 150.512C179.251 148.804 167.042 143.279 157.176 134.633C147.309 125.988 140.228 114.611 136.827 101.941C133.426 89.2714 133.858 75.8776 138.068 63.4533C142.279 51.0291 150.079 40.1324 160.483 32.141C170.886 24.1497 183.426 19.4227 196.516 18.5576C209.605 17.6925 222.658 20.7282 234.023 27.281C245.387 33.8337 254.554 43.6091 260.363 55.3711C264.221 63.1824 266.502 71.6772 267.077 80.3703C267.651 89.0634 266.508 97.7845 263.711 106.036C260.915 114.287 256.52 121.906 250.779 128.459C245.037 135.011 238.061 140.368 230.249 144.224Z" fill="#4C74D9"/>
<path opacity="0.3" d="M276.265 47.5264C266.892 28.0869 250.398 12.9997 230.202 5.39251C210.006 -2.21467 187.657 -1.75839 167.789 6.66674C147.92 15.0919 132.055 30.8397 123.484 50.6455C114.912 70.4514 114.291 92.7962 121.748 113.048C114.987 115.416 108.306 117.957 101.666 120.579C92.0902 124.378 82.6023 128.346 73.2021 132.483C63.8086 136.643 54.4556 140.884 45.1937 145.318C40.5476 147.494 35.9622 149.792 31.3364 152.019C28.9299 153.053 26.7496 154.549 24.9188 156.422C23.9282 157.459 23.0557 158.603 22.3174 159.833C21.4166 161.288 20.7345 162.867 20.293 164.52C19.5313 167.498 19.8607 170.651 21.2215 173.408C22.5824 176.165 24.8849 178.344 27.7126 179.551C29.2828 180.21 30.9396 180.639 32.632 180.827C34.0614 180.988 35.5046 180.988 36.934 180.827C39.5316 180.511 42.0421 179.689 44.3232 178.407C48.9086 176.089 53.5244 173.852 58.0794 171.474C67.1894 166.827 76.2995 161.979 85.2982 157.059C94.2969 152.14 103.306 146.988 112.092 141.704C118.165 138.03 124.299 134.274 130.312 130.347C141.858 148.574 159.973 161.66 180.905 166.894C201.836 172.128 223.979 169.109 242.745 158.461C261.51 147.814 275.461 130.356 281.705 109.703C287.949 89.0503 286.009 66.7871 276.285 47.5264H276.265ZM230.249 144.224C218.486 150.031 205.265 152.219 192.258 150.512C179.251 148.804 167.042 143.279 157.176 134.633C147.309 125.988 140.228 114.611 136.827 101.941C133.426 89.2714 133.858 75.8776 138.068 63.4533C142.279 51.0291 150.079 40.1324 160.483 32.141C170.886 24.1497 183.426 19.4227 196.516 18.5576C209.605 17.6925 222.658 20.7282 234.023 27.281C245.387 33.8337 254.554 43.6091 260.363 55.3711C264.221 63.1824 266.502 71.6772 267.077 80.3703C267.651 89.0634 266.508 97.7845 263.711 106.036C260.915 114.287 256.52 121.906 250.779 128.459C245.037 135.011 238.061 140.368 230.249 144.224Z" fill="black"/>
<path d="M71.9258 64.5416C71.9258 65.1388 72.2396 65.6247 72.6343 65.6247C73.0291 65.6247 73.3429 65.1388 73.3429 64.5416C73.3429 63.9444 73.0291 63.4585 72.6343 63.4585C72.2396 63.4585 71.9258 63.9849 71.9258 64.5416Z" fill="#263238"/>
<path d="M72.209 65.624C72.9255 67.4573 73.8893 69.1839 75.0736 70.756C74.6641 71.0489 74.1955 71.2487 73.7007 71.3414C73.2058 71.4341 72.6967 71.4174 72.209 71.2925V65.624Z" fill="#DE5753"/>
<path d="M69.8306 61.2119C69.7742 61.2119 69.7185 61.1992 69.6676 61.1747C69.6168 61.1501 69.5722 61.1144 69.5371 61.0702C69.4843 60.9929 69.4633 60.8984 69.4784 60.806C69.4935 60.7137 69.5435 60.6307 69.6181 60.5742C70.0639 60.2361 70.5848 60.0108 71.1364 59.9174C71.6881 59.824 72.2541 59.8653 72.7863 60.0377C72.8341 60.0508 72.8787 60.0737 72.9171 60.105C72.9555 60.1363 72.9869 60.1753 73.0093 60.2195C73.0317 60.2637 73.0445 60.3121 73.047 60.3616C73.0495 60.411 73.0417 60.4605 73.0239 60.5067C73.0061 60.553 72.9788 60.595 72.9438 60.63C72.9088 60.6651 72.8668 60.6924 72.8205 60.7102C72.7743 60.728 72.7248 60.7359 72.6754 60.7334C72.6259 60.7309 72.5775 60.7181 72.5333 60.6957C72.1105 60.566 71.6628 60.5397 71.2277 60.619C70.7926 60.6982 70.383 60.8807 70.0331 61.1512C69.9731 61.191 69.9026 61.2121 69.8306 61.2119V61.2119Z" fill="#263238"/>
<path d="M51.4782 69.0459C52.4904 74.4816 53.6038 84.452 49.7979 88.0859C49.7979 88.0859 51.2858 93.6025 61.398 93.6025C72.5325 93.6025 66.702 88.0859 66.702 88.0859C60.6287 86.6283 60.8008 82.134 61.8535 77.9029L51.4782 69.0459Z" fill="#E4897B"/>
<path d="M45.2545 90.9503C46.459 89.0777 44.4346 84.5328 44.4346 84.5328C44.4346 84.5328 62.3307 80.0284 69.6491 86.9419C71.1675 88.3691 69.4872 90.4746 69.4872 90.4746L45.2545 90.9503Z" fill="#4C74D9"/>
<path opacity="0.1" d="M45.2545 90.9503C46.459 89.0777 44.4346 84.5328 44.4346 84.5328C44.4346 84.5328 62.3307 80.0284 69.6491 86.9419C71.1675 88.3691 69.4872 90.4746 69.4872 90.4746L45.2545 90.9503Z" fill="black"/>
<path d="M15.646 297.476C14.7047 297.476 13.1964 295.907 12.7511 295.32C12.7319 295.291 12.7217 295.258 12.7217 295.223C12.7217 295.189 12.7319 295.156 12.7511 295.127C12.7674 295.099 12.7911 295.076 12.8195 295.06C12.848 295.044 12.8803 295.035 12.913 295.036C13.0244 295.036 15.5043 295.259 16.1825 296.14C16.2562 296.233 16.3089 296.34 16.3369 296.456C16.3648 296.571 16.3674 296.691 16.3445 296.808C16.3357 296.958 16.2803 297.102 16.186 297.22C16.0917 297.338 15.9632 297.424 15.8181 297.466L15.646 297.476ZM13.2977 295.451C14.0366 296.301 15.2209 297.263 15.727 297.142C15.727 297.142 15.9294 297.091 15.9902 296.767C16.0035 296.699 16.0013 296.63 15.9838 296.563C15.9662 296.496 15.9338 296.435 15.889 296.382C15.1391 295.815 14.2369 295.483 13.2977 295.431V295.451Z" fill="#4C74D9"/>
<path d="M13.4092 295.431C13.2275 295.449 13.0443 295.449 12.8626 295.431C12.8306 295.429 12.8 295.417 12.7748 295.397C12.7496 295.377 12.7308 295.35 12.7209 295.32C12.7066 295.291 12.6992 295.26 12.6992 295.229C12.6992 295.197 12.7066 295.166 12.7209 295.138C12.7917 295.077 14.2797 293.528 15.4033 293.528C15.5377 293.525 15.6713 293.551 15.7952 293.603C15.9191 293.655 16.0304 293.733 16.122 293.832C16.2227 293.916 16.2917 294.032 16.3175 294.161C16.3432 294.29 16.3243 294.424 16.2637 294.54C15.9701 295.107 14.4214 295.431 13.4092 295.431ZM13.2776 295.077C14.2898 295.077 15.7576 294.763 16.0005 294.318C16.0005 294.318 16.0713 294.186 15.9094 294.024C15.8505 293.96 15.7783 293.91 15.6978 293.876C15.6174 293.843 15.5307 293.828 15.4438 293.832V293.832C14.614 294.022 13.8598 294.456 13.2776 295.077V295.077Z" fill="#4C74D9"/>
<path d="M82.4431 320.452C81.6758 320.446 80.9105 320.375 80.1554 320.239C80.1179 320.232 80.0841 320.212 80.0601 320.182C80.036 320.152 80.0232 320.115 80.0238 320.077C80.0182 320.042 80.0228 320.006 80.0372 319.974C80.0516 319.941 80.0751 319.914 80.1048 319.895C80.2162 319.834 82.8075 318.346 84.0525 318.69C84.1679 318.716 84.2769 318.766 84.3726 318.835C84.4683 318.905 84.5488 318.993 84.6092 319.095C84.6885 319.208 84.7311 319.342 84.7311 319.48C84.7311 319.618 84.6885 319.752 84.6092 319.864C84.3157 320.32 83.3945 320.452 82.4431 320.452ZM80.7324 319.976C82.109 320.178 83.9918 320.168 84.3359 319.682C84.3865 319.621 84.427 319.51 84.3359 319.298C84.2586 319.172 84.1351 319.081 83.9918 319.045C83.2022 318.842 81.6333 319.51 80.7324 319.976Z" fill="#4C74D9"/>
<path d="M80.1965 320.251C80.1635 320.261 80.1284 320.261 80.0953 320.251C80.0673 320.233 80.0454 320.207 80.0327 320.176C80.02 320.146 80.0171 320.112 80.0245 320.079C80.0931 319.025 80.4975 318.021 81.1784 317.214C81.3161 317.096 81.4778 317.008 81.6525 316.957C81.8272 316.907 82.0107 316.894 82.1906 316.921C82.6765 316.921 82.8182 317.214 82.8486 317.407C82.9802 318.247 81.2088 319.856 80.3079 320.261L80.1965 320.251ZM82.0084 317.214C81.7857 317.213 81.57 317.292 81.4011 317.437C80.8287 318.076 80.4743 318.881 80.3889 319.735C81.2999 319.178 82.5145 317.923 82.4133 317.417C82.4133 317.417 82.4133 317.245 82.0692 317.214H82.0084Z" fill="#4C74D9"/>
<path d="M72.0176 320.068H79.4575L80.1964 302.85H72.7565L72.0176 320.068Z" fill="#E4897B"/>
<path d="M5.7666 290.511L11.9817 294.58L25.7075 282.99L19.4823 278.911L5.7666 290.511Z" fill="#E4897B"/>
<path d="M13.0045 294.196L6.54649 288.902C6.43239 288.809 6.28929 288.757 6.1416 288.757C5.99391 288.757 5.85081 288.809 5.73671 288.902L0.412391 293.083C0.283761 293.185 0.179881 293.315 0.10848 293.463C0.0370801 293.611 0 293.774 0 293.938C0 294.103 0.0370801 294.265 0.10848 294.413C0.179881 294.561 0.283761 294.691 0.412391 294.793C2.70002 296.605 3.90458 297.375 6.74893 299.703C8.50009 301.13 12.8223 305.503 15.2618 307.477C17.7012 309.451 19.9382 307.325 19.1285 306.303C15.4946 301.697 14.0673 297.759 13.6523 295.32C13.5806 294.879 13.3502 294.479 13.0045 294.196V294.196Z" fill="#263238"/>
<path d="M79.4067 319.209H71.3088C71.1612 319.21 71.018 319.26 70.9023 319.352C70.7866 319.444 70.7052 319.572 70.6711 319.716L69.2034 326.325C69.1665 326.486 69.1666 326.652 69.2036 326.812C69.2405 326.972 69.3135 327.122 69.4169 327.25C69.5203 327.378 69.6514 327.48 69.8003 327.55C69.9492 327.619 70.112 327.654 70.2764 327.651C73.2017 327.601 77.4328 327.429 81.1173 327.429C85.4193 327.429 89.1443 327.662 94.1852 327.662C97.2219 327.662 98.0924 324.574 96.8068 324.301C90.9967 323.026 86.2392 322.894 81.2185 319.786C80.6798 319.43 80.0525 319.23 79.4067 319.209V319.209Z" fill="#263238"/>
<path d="M35.1428 90.3029C28.6949 93.3395 25.0205 113.685 25.0205 113.685L40.7809 119.971C43.0878 114.338 44.9526 108.534 46.3583 102.612C48.5244 93.2383 41.7425 87.165 35.1428 90.3029Z" fill="#263238"/>
<path d="M43.5029 101.772C39.6059 105.719 37.8243 113.453 37.0449 118.483L40.8205 119.992C43.0619 114.519 44.889 108.885 46.2866 103.138C45.9525 100.992 45.1225 100.132 43.5029 101.772Z" fill="#203048"/>
<path d="M78.1404 90.161C78.1404 90.161 86.0561 99.1091 78.5858 154.437H38.8154C38.5421 148.364 42.3785 118.554 36.4873 89.7865C40.8825 88.9343 45.329 88.373 49.7981 88.1062C55.4279 87.7719 61.0725 87.7719 66.7023 88.1062C70.5624 88.4946 74.3865 89.1816 78.1404 90.161V90.161Z" fill="#263238"/>
<path d="M81.7757 111.641L75.0747 100.092C73.7812 105.481 73.253 111.025 73.5058 116.561C73.688 120.529 77.3219 135.226 80.5914 137.372C81.4589 128.823 81.8543 120.233 81.7757 111.641V111.641Z" fill="#203048"/>
<path d="M82.7068 98.0659C83.7191 102.985 84.7313 108.026 85.8144 112.966C86.8975 117.906 88.021 122.865 89.3268 127.653C89.6608 128.838 89.9746 130.052 90.339 131.186L90.6123 132.056L90.7439 132.492V132.441C90.6731 132.35 90.5921 132.34 90.6528 132.441C91.0688 132.895 91.6007 133.228 92.1914 133.403C93.1483 133.759 94.1337 134.033 95.137 134.223C99.9227 134.981 104.768 135.296 109.612 135.164L110.573 140.671C109.217 141.106 107.952 141.42 106.616 141.733C105.28 142.047 103.964 142.31 102.617 142.513C99.832 142.977 97.0079 143.166 94.1855 143.08C92.6167 143.037 91.0564 142.834 89.5293 142.472C87.5874 142.048 85.7628 141.201 84.1847 139.992C83.154 139.16 82.3034 138.127 81.6845 136.956C81.5225 136.652 81.3808 136.308 81.2492 136.014L81.067 135.539L80.6925 134.526C80.1763 133.241 79.7511 131.976 79.2855 130.71C77.5749 125.649 76.1476 120.537 74.8924 115.436C73.6373 110.334 72.5542 105.243 71.6533 100.009L82.7068 98.0659Z" fill="#E4897B"/>
<path d="M68.2114 95.5867C66.1161 102.379 74.6087 122.633 74.6087 122.633L91.523 118.382C91.523 118.382 90.8752 107.855 87.0186 99.504C81.2084 86.9119 70.7217 87.4383 68.2114 95.5867Z" fill="#263238"/>
<path d="M109.47 135.164L117.892 134.951L113.843 143.717C113.843 143.717 110.412 144.173 107.598 139.547L104.632 136.004L108.043 135.326C108.513 135.227 108.99 135.173 109.47 135.164V135.164Z" fill="#E4897B"/>
<path d="M123.205 136.581L118.387 143.849L113.842 143.717L117.891 134.951L123.205 136.581Z" fill="#E4897B"/>
<path d="M80.1966 302.85L79.8119 311.727H72.3721L72.7567 302.85H80.1966Z" fill="#CE6F64"/>
<path d="M19.4837 278.911L25.7089 282.99L18.6233 288.963L12.4082 284.893L19.4837 278.911Z" fill="#CE6F64"/>
<path d="M51.9451 63.2557C52.3905 70.6146 52.2791 74.957 55.994 78.7326C61.5815 84.4315 70.6814 81.0608 72.4427 73.6715C74.0319 67.0515 73.0399 56.1195 65.8328 53.184C64.2426 52.5422 62.5154 52.3148 60.8132 52.5234C59.1111 52.7319 57.4898 53.3695 56.1015 54.3763C54.7133 55.3831 53.6036 56.726 52.8766 58.2792C52.1495 59.8323 51.829 61.5447 51.9451 63.2557V63.2557Z" fill="#E4897B"/>
<path d="M43.2799 61.9594C45.112 68.6705 49.4241 76.4039 55.0015 76.8999C61.9251 77.5072 65.0529 70.3508 65.9639 62.9615C70.1141 60.1172 67.9378 56.9894 72.098 56.5946C77.4426 56.0885 75.7319 46.3104 68.6969 44.7414C68.6969 44.7414 71.0554 49.1446 66.1056 46.9177C61.3983 44.6806 56.1686 43.7739 50.983 44.296C50.983 44.296 57.2993 47.4542 51.1247 48.8612C44.9501 50.2682 43.1078 54.0741 45.9522 56.3719C45.9522 56.382 42.0754 57.5461 43.2799 61.9594Z" fill="#263238"/>
<path d="M61.742 64.4815C61.878 66.3107 62.6146 68.0437 63.8373 69.411C65.4569 71.2027 67.1473 70.0892 67.4308 67.913C67.6939 65.9594 67.1575 62.6696 65.1735 61.6776C63.1895 60.6856 61.6105 62.2748 61.742 64.4815Z" fill="#E4897B"/>
<path d="M64.4751 154.438C64.4751 154.438 71.7227 206.922 66.0137 227.956C56.9644 261.259 22.3665 289.368 22.3665 289.368L10.6348 281.675C10.6348 281.675 40.1007 257.939 43.7042 230.052C46.9433 205.019 38.8152 174.744 38.8152 154.428L64.4751 154.438Z" fill="#4C74D9"/>
<path opacity="0.1" d="M64.4751 154.438C64.4751 154.438 71.7227 206.922 66.0137 227.956C56.9644 261.259 22.3665 289.368 22.3665 289.368L10.6348 281.675C10.6348 281.675 40.1007 257.939 43.7042 230.052C46.9433 205.019 38.8152 174.744 38.8152 154.428L64.4751 154.438Z" fill="black"/>
<path d="M67.4726 184.441C65.5432 182.23 63.4191 180.198 61.126 178.367C62.3609 195.403 63.3731 220.638 62.2495 238.564C63.7602 235.128 65.0187 231.586 66.015 227.966C68.7987 217.692 68.5051 199.948 67.4726 184.441Z" fill="#4C74D9"/>
<path opacity="0.3" d="M67.4726 184.441C65.5432 182.23 63.4191 180.198 61.126 178.367C62.3609 195.403 63.3731 220.638 62.2495 238.564C63.7602 235.128 65.0187 231.586 66.015 227.966C68.7987 217.692 68.5051 199.948 67.4726 184.441Z" fill="black"/>
<path d="M27.095 286.748C27.1457 286.748 22.5501 289.784 22.5501 289.784L9.73535 281.383L13.7843 278.032L27.095 286.748Z" fill="#4C74D9"/>
<path opacity="0.3" d="M27.095 286.748C27.1457 286.748 22.5501 289.784 22.5501 289.784L9.73535 281.383L13.7843 278.032L27.095 286.748Z" fill="black"/>
<path d="M78.5863 154.438C78.5863 154.438 89.7815 201.911 90.571 224.595C91.4618 250.023 82.5845 310.007 82.5845 310.007H69.9823C69.9823 310.007 68.4336 249.557 67.8769 226.397C67.2594 201.142 52.4404 154.438 52.4404 154.438H78.5863Z" fill="#4C74D9"/>
<path opacity="0.1" d="M78.5863 154.438C78.5863 154.438 89.7815 201.911 90.571 224.595C91.4618 250.023 82.5845 310.007 82.5845 310.007H69.9823C69.9823 310.007 68.4336 249.557 67.8769 226.397C67.2594 201.142 52.4404 154.438 52.4404 154.438H78.5863Z" fill="black"/>
<path d="M85.0053 304.996C85.0661 304.996 84.2968 310.219 84.2968 310.219H68.9717L68.5566 305.553L85.0053 304.996Z" fill="#4C74D9"/>
<path opacity="0.3" d="M85.0053 304.996C85.0661 304.996 84.2968 310.219 84.2968 310.219H68.9717L68.5566 305.553L85.0053 304.996Z" fill="black"/>
<path d="M272.348 108.816C273.208 109.626 273.887 110.315 274.595 111.084C275.304 111.853 275.972 112.602 276.62 113.382C277.935 114.93 279.17 116.56 280.365 118.2C282.75 121.489 284.873 124.962 286.712 128.585L287.086 129.324C287.269 129.682 287.421 130.054 287.542 130.438C287.786 131.178 287.936 131.947 287.987 132.725C288.053 134.098 287.864 135.47 287.43 136.774C286.691 138.94 285.592 140.965 284.181 142.767C281.637 146.033 278.638 148.917 275.273 151.33L272.753 148.435C273.937 147.048 275.172 145.56 276.275 144.072C277.398 142.631 278.413 141.108 279.312 139.517C280.152 138.129 280.773 136.62 281.154 135.043C281.285 134.479 281.309 133.895 281.225 133.322C281.189 133.13 281.128 132.943 281.043 132.766C281.005 132.688 280.961 132.614 280.911 132.543L280.588 131.996C278.635 128.813 276.517 125.735 274.241 122.775C273.117 121.287 271.913 119.86 270.698 118.453C270.101 117.744 269.483 117.056 268.866 116.368C268.248 115.679 267.58 114.991 267.044 114.455L272.348 108.816Z" fill="#E4897B"/>
<path d="M273.725 147.584L266.164 146.349L270.121 152.969C270.121 152.969 274.99 152.797 276.377 149.932L273.725 147.584Z" fill="#E4897B"/>
<path d="M260.576 149.406L264.179 154.781L270.121 152.969L266.163 146.349L260.576 149.406Z" fill="#E4897B"/>
<path d="M273.36 320.361C272.846 320.405 272.333 320.265 271.913 319.966C271.786 319.846 271.692 319.695 271.641 319.529C271.589 319.362 271.582 319.185 271.619 319.014C271.626 318.906 271.663 318.801 271.726 318.712C271.788 318.623 271.874 318.552 271.973 318.508C272.854 318.113 275.162 319.591 275.425 319.763C275.455 319.782 275.478 319.81 275.491 319.843C275.504 319.875 275.505 319.912 275.496 319.946C275.492 319.98 275.477 320.013 275.453 320.038C275.43 320.064 275.399 320.081 275.364 320.087C274.709 320.254 274.036 320.345 273.36 320.361V320.361ZM272.348 318.792C272.274 318.78 272.199 318.78 272.125 318.792C272.081 318.812 272.043 318.845 272.016 318.886C271.989 318.927 271.974 318.975 271.973 319.024C271.947 319.137 271.949 319.255 271.981 319.367C272.013 319.479 272.073 319.58 272.155 319.662C272.54 320.006 273.532 320.057 274.858 319.794C274.099 319.292 273.244 318.951 272.348 318.792V318.792Z" fill="#4C74D9"/>
<path d="M275.384 320.078H275.293C274.575 319.663 273.188 318.054 273.36 317.173C273.393 317.034 273.469 316.91 273.579 316.819C273.689 316.727 273.825 316.674 273.967 316.667C274.104 316.647 274.243 316.659 274.375 316.701C274.506 316.743 274.627 316.815 274.726 316.91C275.556 317.639 275.567 319.825 275.567 319.947C275.565 319.977 275.555 320.007 275.539 320.034C275.524 320.06 275.502 320.082 275.475 320.098L275.384 320.078ZM274.089 317.042H274.008C273.785 317.042 273.734 317.163 273.714 317.254C273.613 317.77 274.473 319.005 275.192 319.582C275.21 318.733 274.966 317.899 274.494 317.193C274.433 317.137 274.361 317.094 274.282 317.068C274.204 317.042 274.12 317.033 274.038 317.042H274.089Z" fill="#4C74D9"/>
<path d="M238.863 320.361C238.217 320.423 237.569 320.258 237.031 319.896C236.909 319.788 236.816 319.653 236.758 319.501C236.699 319.35 236.679 319.187 236.697 319.025C236.703 318.927 236.735 318.832 236.788 318.749C236.841 318.665 236.914 318.597 237 318.55C237.942 318.023 240.958 319.562 241.302 319.754C241.334 319.775 241.359 319.803 241.375 319.837C241.391 319.871 241.398 319.909 241.394 319.946C241.388 319.982 241.371 320.015 241.345 320.04C241.32 320.065 241.287 320.082 241.252 320.088C240.466 320.255 239.666 320.347 238.863 320.361V320.361ZM237.517 318.793C237.401 318.785 237.285 318.809 237.183 318.863C237.146 318.881 237.116 318.908 237.094 318.942C237.073 318.976 237.061 319.015 237.061 319.056C237.046 319.161 237.056 319.269 237.091 319.369C237.127 319.47 237.186 319.56 237.264 319.633C237.729 320.048 238.974 320.119 240.655 319.835C239.675 319.313 238.614 318.961 237.517 318.793V318.793Z" fill="#4C74D9"/>
<path d="M241.222 320.079H241.141C240.24 319.674 238.449 318.054 238.59 317.173C238.59 316.971 238.773 316.718 239.269 316.667C239.45 316.648 239.633 316.666 239.807 316.72C239.981 316.774 240.142 316.863 240.281 316.981C241.232 317.771 241.415 319.815 241.415 319.906C241.419 319.937 241.414 319.969 241.402 319.997C241.389 320.026 241.369 320.05 241.344 320.068C241.305 320.085 241.263 320.088 241.222 320.079V320.079ZM239.41 317.042H239.299C238.975 317.042 238.955 317.204 238.945 317.244C238.864 317.761 240.078 319.046 240.969 319.603C240.881 318.738 240.528 317.921 239.957 317.265C239.803 317.134 239.612 317.056 239.41 317.042V317.042Z" fill="#4C74D9"/>
<path d="M253.187 85.5444C252.894 90.1197 252.104 99.4119 255.617 101.983C255.617 101.983 254.979 106.67 246.689 107.763C237.579 108.947 241.739 103.805 241.739 103.805C246.567 101.963 245.95 98.2884 244.634 94.9278L253.187 85.5444Z" fill="#E4897B"/>
<path d="M234.328 77.4569C234.278 77.457 234.228 77.4462 234.183 77.4252C234.137 77.4043 234.097 77.3736 234.064 77.3355C233.775 76.9921 233.409 76.7216 232.996 76.5458C232.583 76.3699 232.134 76.2937 231.686 76.3232C231.638 76.3319 231.59 76.3308 231.543 76.32C231.496 76.3092 231.452 76.289 231.413 76.2606C231.374 76.2322 231.341 76.1962 231.317 76.1547C231.293 76.1133 231.277 76.0673 231.271 76.0196C231.259 75.9244 231.286 75.8285 231.344 75.7527C231.403 75.6769 231.489 75.6273 231.584 75.6147C232.156 75.5664 232.731 75.6571 233.26 75.8792C233.788 76.1013 234.256 76.4482 234.621 76.8901C234.665 76.9429 234.693 77.0069 234.702 77.075C234.711 77.143 234.701 77.2122 234.672 77.2746C234.644 77.337 234.598 77.3901 234.541 77.4277C234.483 77.4653 234.416 77.486 234.348 77.4873L234.328 77.4569Z" fill="#263238"/>
<path d="M232.749 81.9414C232.39 83.3932 231.835 84.7894 231.099 86.0915C231.437 86.2734 231.811 86.3786 232.194 86.3996C232.577 86.4205 232.96 86.3569 233.316 86.213L232.749 81.9414Z" fill="#DE5753"/>
<path d="M233.153 80.8281C233.234 81.4355 232.981 81.9618 232.586 82.0226C232.191 82.0833 231.796 81.6177 231.726 81.0104C231.655 80.403 231.898 79.8766 232.292 79.826C232.687 79.7754 233.082 80.1803 233.153 80.8281Z" fill="#263238"/>
<path d="M232.475 79.8368L230.967 79.604C230.967 79.604 231.858 80.6466 232.475 79.8368Z" fill="#263238"/>
<path d="M249.562 319.916H241.97L241.464 302.354H249.056L249.562 319.916Z" fill="#E4897B"/>
<path d="M284.029 319.916H276.437L273.998 302.354H281.589L284.029 319.916Z" fill="#E4897B"/>
<path d="M275.971 319.067H284.494C284.639 319.066 284.78 319.117 284.89 319.212C285 319.307 285.071 319.439 285.091 319.583L286.103 326.335C286.122 326.505 286.104 326.677 286.052 326.84C285.999 327.003 285.912 327.153 285.798 327.28C285.683 327.407 285.543 327.509 285.386 327.578C285.229 327.647 285.06 327.682 284.889 327.681C281.923 327.63 280.486 327.458 276.74 327.458C274.432 327.458 271.062 327.691 267.883 327.691C264.705 327.691 264.533 324.543 265.859 324.26C271.801 322.984 272.742 321.223 274.736 319.533C275.084 319.244 275.519 319.08 275.971 319.067Z" fill="#263238"/>
<path d="M241.717 319.067H250.23C250.377 319.065 250.519 319.117 250.63 319.211C250.742 319.306 250.816 319.438 250.838 319.583L251.85 326.335C251.868 326.505 251.851 326.677 251.798 326.84C251.745 327.003 251.659 327.153 251.544 327.28C251.429 327.407 251.289 327.509 251.132 327.578C250.976 327.647 250.806 327.682 250.635 327.681C247.669 327.63 246.232 327.458 242.487 327.458C240.179 327.458 235.401 327.691 232.223 327.691C229.044 327.691 228.872 324.543 230.198 324.26C236.14 322.984 238.478 321.223 240.482 319.533C240.831 319.244 241.265 319.08 241.717 319.067Z" fill="#263238"/>
<path d="M241.464 302.354L241.727 311.413H249.319L249.056 302.354H241.464Z" fill="#CE6F64"/>
<path d="M281.589 302.354H273.998L275.263 311.413H282.844L281.589 302.354Z" fill="#CE6F64"/>
<path d="M253.288 76.0703C253.804 83.581 254.178 86.7493 250.919 91.0715C246.01 97.5599 236.677 96.5578 233.924 89.3507C231.444 82.8623 231.019 71.6772 237.922 67.7498C239.441 66.8794 241.156 66.4115 242.907 66.3904C244.657 66.3693 246.384 66.7957 247.923 67.6292C249.462 68.4627 250.763 69.6756 251.702 71.1529C252.641 72.6302 253.186 74.3228 253.288 76.0703V76.0703Z" fill="#E4897B"/>
<path d="M257.66 83.0449C261.871 85.3932 264.999 79.6033 264.999 79.6033C264.999 79.6033 257.448 80.4232 258.126 75.9289C259.016 69.9669 254.745 62.7194 244.036 63.6506C243.438 63.7012 242.871 63.7721 242.315 63.8632C241.194 63.3318 239.926 63.1946 238.717 63.4738C237.508 63.7531 236.429 64.4324 235.654 65.4018C232.618 65.6548 228.518 69.2786 231.302 74.0664C231.497 73.5163 231.8 73.0105 232.192 72.5785C232.425 75.3823 234.875 79.8361 237.932 80.1297C238.59 83.966 236.039 88.4097 236.92 92.4181C238.225 98.1979 247.973 99.5037 247.973 99.5037C247.637 98.7819 247.512 97.9798 247.612 97.1899C247.712 96.4 248.034 95.6546 248.54 95.0398C255.16 98.0764 259.523 95.1106 259.523 95.1106C255.008 93.4303 256.375 90.4341 256.375 90.4341C257.933 91.1262 259.7 91.187 261.302 90.6037C262.905 90.0204 264.219 88.8385 264.968 87.3063C263.469 87.3775 261.981 87.013 260.684 86.2568C259.387 85.5006 258.337 84.385 257.66 83.0449V83.0449Z" fill="#263238"/>
<path d="M240.573 81.2824C240.591 82.0032 240.466 82.7204 240.205 83.3927C239.945 84.065 239.554 84.6792 239.055 85.1997C237.718 86.5865 236.079 85.6147 235.633 83.8433C235.239 82.244 235.461 79.6021 237.202 78.8733C237.585 78.7227 238 78.6703 238.409 78.7208C238.817 78.7714 239.207 78.9232 239.542 79.1626C239.877 79.402 240.146 79.7213 240.327 80.0915C240.507 80.4617 240.591 80.8711 240.573 81.2824V81.2824Z" fill="#E4897B"/>
<path d="M246.879 151.259C246.879 151.259 248.802 201.223 253.377 230.557C257.062 254.264 273.43 309.653 273.43 309.653H283.775C283.775 309.653 275.242 256.156 273.369 232.723C268.632 173.417 280.93 160.683 269.32 148.334L246.879 151.259Z" fill="#263238"/>
<path d="M255.524 167.059C255.524 167.059 250.848 166.249 248.115 175.157C249.127 192.03 250.858 214.421 253.378 230.556C253.935 234.149 254.785 238.481 255.828 243.229C253.854 214.724 255.524 167.059 255.524 167.059Z" fill="#161F33"/>
<path d="M238.812 152.312C238.812 152.312 230.289 207.59 230.785 230.719C231.301 254.78 240.118 309.673 240.118 309.673H250.372C250.372 309.673 248.752 256.207 249.653 232.581C250.665 206.82 261.182 149.407 261.182 149.407L238.812 152.312Z" fill="#263238"/>
<path d="M285.273 310.137H271.517L270.444 305.521L285.172 305.623L285.273 310.137Z" fill="#4C74D9"/>
<path opacity="0.2" d="M285.273 310.137H271.517L270.444 305.521L285.172 305.623L285.273 310.137Z" fill="black"/>
<path d="M268.805 101.994C272.763 102.378 278.775 113.624 278.775 113.624L268.785 121.287C268.785 121.287 260.515 114.029 261.497 109.95C262.519 105.709 265.009 101.639 268.805 101.994Z" fill="#4C74D9"/>
<path opacity="0.1" d="M268.805 101.994C272.763 102.378 278.775 113.624 278.775 113.624L268.785 121.287C268.785 121.287 260.515 114.029 261.497 109.95C262.519 105.709 265.009 101.639 268.805 101.994Z" fill="black"/>
<path d="M265.818 106.832C264.81 106.56 263.765 106.444 262.721 106.488C262.19 107.595 261.779 108.755 261.496 109.95C260.484 113.999 268.784 121.287 268.784 121.287L269.523 120.72L265.818 106.832Z" fill="#4C74D9"/>
<path opacity="0.3" d="M265.818 106.832C264.81 106.56 263.765 106.444 262.721 106.488C262.19 107.595 261.779 108.755 261.496 109.95C260.484 113.999 268.784 121.287 268.784 121.287L269.523 120.72L265.818 106.832Z" fill="black"/>
<path d="M235.422 117.633C232.537 124.931 229.5 132.351 227.081 139.669C226.919 140.135 226.787 140.58 226.646 141.036L226.302 142.159C226.208 142.49 226.208 142.84 226.302 143.171C226.873 144.437 227.779 145.522 228.923 146.309C231.95 148.481 235.247 150.247 238.732 151.563L237.821 155.288C233.534 154.722 229.389 153.37 225.593 151.3C223.257 150.052 221.355 148.125 220.137 145.773C219.438 144.27 219.195 142.594 219.439 140.955C219.462 140.754 219.495 140.554 219.54 140.357L219.641 139.932L219.813 139.163C219.935 138.647 220.056 138.151 220.188 137.645C221.2 133.596 222.496 129.749 223.862 125.933C225.229 122.117 226.656 118.352 228.265 114.596L235.422 117.633Z" fill="#E4897B"/>
<path d="M229.278 107.389C229.278 107.389 225.856 109.12 238.813 152.311L269.362 148.323C267.216 135.954 266.204 128.291 268.805 101.994C264.425 101.68 260.027 101.68 255.646 101.994C250.982 102.265 246.344 102.874 241.769 103.816C235.908 105.121 229.278 107.389 229.278 107.389Z" fill="#4C74D9"/>
<path opacity="0.1" d="M229.278 107.389C229.278 107.389 225.856 109.12 238.813 152.311L269.362 148.323C267.216 135.954 266.204 128.291 268.805 101.994C264.425 101.68 260.027 101.68 255.646 101.994C250.982 102.265 246.344 102.874 241.769 103.816C235.908 105.121 229.278 107.389 229.278 107.389Z" fill="black"/>
<path d="M269.584 146.47L271.335 149.011C271.467 149.213 271.244 149.456 270.9 149.507L238.863 153.697C238.589 153.697 238.336 153.626 238.296 153.454L237.668 150.752C237.618 150.569 237.84 150.377 238.144 150.337L269.078 146.288C269.171 146.273 269.266 146.282 269.354 146.314C269.443 146.346 269.522 146.399 269.584 146.47Z" fill="#4C74D9"/>
<path opacity="0.2" d="M269.584 146.47L271.335 149.011C271.467 149.213 271.244 149.456 270.9 149.507L238.863 153.697C238.589 153.697 238.336 153.626 238.296 153.454L237.668 150.752C237.618 150.569 237.84 150.377 238.144 150.337L269.078 146.288C269.171 146.273 269.266 146.282 269.354 146.314C269.443 146.346 269.522 146.399 269.584 146.47Z" fill="black"/>
<path d="M265.881 150.47L266.711 150.358C266.873 150.358 266.984 150.237 266.964 150.136L266.113 146.633C266.081 146.574 266.029 146.527 265.967 146.501C265.904 146.475 265.834 146.472 265.769 146.492L264.939 146.593C264.767 146.593 264.656 146.714 264.686 146.826L265.536 150.318C265.557 150.429 265.719 150.49 265.881 150.47Z" fill="#263238"/>
<path d="M245.797 153.059L246.627 152.947C246.789 152.947 246.911 152.826 246.88 152.725L246.03 149.222C245.997 149.163 245.945 149.117 245.883 149.089C245.821 149.062 245.752 149.055 245.686 149.071L244.856 149.182C244.694 149.182 244.572 149.303 244.603 149.405L245.453 152.907C245.473 153.059 245.635 153.119 245.797 153.059Z" fill="#263238"/>
<path d="M230.705 122.046C231.545 125.953 232.729 130.903 234.46 137.169L234.834 121.287L230.705 122.046Z" fill="#4C74D9"/>
<path opacity="0.3" d="M230.705 122.046C231.545 125.953 232.729 130.903 234.46 137.169L234.834 121.287L230.705 122.046Z" fill="black"/>
<path d="M229.277 107.389C225.481 108.918 222.191 121.905 222.191 121.905L235.249 128.261C235.249 128.261 241.555 112.379 238.731 109.282C235.907 106.185 233.65 105.638 229.277 107.389Z" fill="#4C74D9"/>
<path opacity="0.1" d="M229.277 107.389C225.481 108.918 222.191 121.905 222.191 121.905L235.249 128.261C235.249 128.261 241.555 112.379 238.731 109.282C235.907 106.185 233.65 105.638 229.277 107.389Z" fill="black"/>
<path d="M252.123 310.137H238.367L237.294 305.521L252.609 305.623L252.123 310.137Z" fill="#4C74D9"/>
<path opacity="0.2" d="M252.123 310.137H238.367L237.294 305.521L252.609 305.623L252.123 310.137Z" fill="black"/>
<path d="M238.944 150.308L237.841 149.852C237.569 149.742 237.274 149.705 236.984 149.746C236.694 149.787 236.42 149.904 236.19 150.085C235.959 150.266 235.781 150.504 235.673 150.776C235.565 151.048 235.53 151.344 235.573 151.634L236.373 156.907C236.411 157.171 236.508 157.424 236.655 157.646C236.803 157.868 236.998 158.054 237.227 158.192C237.455 158.329 237.712 158.414 237.977 158.441C238.243 158.467 238.51 158.435 238.762 158.345C239.163 158.199 239.539 157.991 239.875 157.727C240.241 157.424 240.531 157.038 240.721 156.602C240.911 156.166 240.995 155.692 240.968 155.217L240.857 153.031C240.838 152.44 240.646 151.868 240.307 151.384C239.967 150.9 239.493 150.526 238.944 150.308Z" fill="#E4897B"/>
</svg>
