<svg width="242" height="31" viewBox="0 0 242 31" fill="none" xmlns="http://www.w3.org/2000/svg">
<path d="M39.3222 2.08L31.5222 30H24.9222L19.6822 10.12L14.2022 30L7.64219 30.04L0.122188 2.08H6.12219L11.0422 23.76L16.7222 2.08H22.9622L28.3222 23.64L33.2822 2.08H39.3222ZM63.5788 18.44C63.5788 19.24 63.5254 19.96 63.4188 20.6H47.2188C47.3521 22.2 47.9121 23.4533 48.8988 24.36C49.8854 25.2667 51.0988 25.72 52.5388 25.72C54.6188 25.72 56.0988 24.8267 56.9788 23.04H63.0188C62.3788 25.1733 61.1521 26.9333 59.3388 28.32C57.5254 29.68 55.2988 30.36 52.6588 30.36C50.5254 30.36 48.6054 29.8933 46.8988 28.96C45.2188 28 43.8988 26.6533 42.9388 24.92C42.0054 23.1867 41.5387 21.1867 41.5387 18.92C41.5387 16.6267 42.0054 14.6133 42.9388 12.88C43.8721 11.1467 45.1788 9.81333 46.8588 8.88C48.5388 7.94667 50.4721 7.48 52.6588 7.48C54.7654 7.48 56.6454 7.93333 58.2988 8.84C59.9788 9.74667 61.2721 11.04 62.1788 12.72C63.1121 14.3733 63.5788 16.28 63.5788 18.44ZM57.7788 16.84C57.7521 15.4 57.2321 14.2533 56.2188 13.4C55.2054 12.52 53.9654 12.08 52.4988 12.08C51.1121 12.08 49.9388 12.5067 48.9788 13.36C48.0454 14.1867 47.4721 15.3467 47.2588 16.84H57.7788ZM73.2663 0.4V30H67.6663V0.4H73.2663ZM77.3591 18.92C77.3591 16.6267 77.8257 14.6267 78.7591 12.92C79.6924 11.1867 80.9857 9.85333 82.6391 8.92C84.2924 7.96 86.1857 7.48 88.3191 7.48C91.0657 7.48 93.3324 8.17333 95.1191 9.56C96.9324 10.92 98.1457 12.84 98.7591 15.32H92.7191C92.3991 14.36 91.8524 13.6133 91.0791 13.08C90.3324 12.52 89.3991 12.24 88.2791 12.24C86.6791 12.24 85.4124 12.8267 84.4791 14C83.5457 15.1467 83.0791 16.7867 83.0791 18.92C83.0791 21.0267 83.5457 22.6667 84.4791 23.84C85.4124 24.9867 86.6791 25.56 88.2791 25.56C90.5457 25.56 92.0257 24.5467 92.7191 22.52H98.7591C98.1457 24.92 96.9324 26.8267 95.1191 28.24C93.3057 29.6533 91.0391 30.36 88.3191 30.36C86.1857 30.36 84.2924 29.8933 82.6391 28.96C80.9857 28 79.6924 26.6667 78.7591 24.96C77.8257 23.2267 77.3591 21.2133 77.3591 18.92ZM112.702 30.36C110.568 30.36 108.648 29.8933 106.942 28.96C105.235 28 103.888 26.6533 102.902 24.92C101.942 23.1867 101.462 21.1867 101.462 18.92C101.462 16.6533 101.955 14.6533 102.942 12.92C103.955 11.1867 105.328 9.85333 107.062 8.92C108.795 7.96 110.728 7.48 112.862 7.48C114.995 7.48 116.928 7.96 118.662 8.92C120.395 9.85333 121.755 11.1867 122.742 12.92C123.755 14.6533 124.262 16.6533 124.262 18.92C124.262 21.1867 123.742 23.1867 122.702 24.92C121.688 26.6533 120.302 28 118.542 28.96C116.808 29.8933 114.862 30.36 112.702 30.36ZM112.702 25.48C113.715 25.48 114.662 25.24 115.542 24.76C116.448 24.2533 117.168 23.5067 117.702 22.52C118.235 21.5333 118.502 20.3333 118.502 18.92C118.502 16.8133 117.942 15.2 116.822 14.08C115.728 12.9333 114.382 12.36 112.782 12.36C111.182 12.36 109.835 12.9333 108.742 14.08C107.675 15.2 107.142 16.8133 107.142 18.92C107.142 21.0267 107.662 22.6533 108.702 23.8C109.768 24.92 111.102 25.48 112.702 25.48ZM155.889 7.52C158.609 7.52 160.796 8.36 162.449 10.04C164.129 11.6933 164.969 14.0133 164.969 17V30H159.369V17.76C159.369 16.0267 158.929 14.7067 158.049 13.8C157.169 12.8667 155.969 12.4 154.449 12.4C152.929 12.4 151.716 12.8667 150.809 13.8C149.929 14.7067 149.489 16.0267 149.489 17.76V30H143.889V17.76C143.889 16.0267 143.449 14.7067 142.569 13.8C141.689 12.8667 140.489 12.4 138.969 12.4C137.423 12.4 136.196 12.8667 135.289 13.8C134.409 14.7067 133.969 16.0267 133.969 17.76V30H128.369V7.84H133.969V10.52C134.689 9.58667 135.609 8.85333 136.729 8.32C137.876 7.78666 139.129 7.52 140.489 7.52C142.223 7.52 143.769 7.89333 145.129 8.64C146.489 9.36 147.543 10.4 148.289 11.76C149.009 10.48 150.049 9.45333 151.409 8.68C152.796 7.90667 154.289 7.52 155.889 7.52ZM190.883 18.44C190.883 19.24 190.83 19.96 190.723 20.6H174.523C174.657 22.2 175.217 23.4533 176.203 24.36C177.19 25.2667 178.403 25.72 179.843 25.72C181.923 25.72 183.403 24.8267 184.283 23.04H190.323C189.683 25.1733 188.457 26.9333 186.643 28.32C184.83 29.68 182.603 30.36 179.963 30.36C177.83 30.36 175.91 29.8933 174.203 28.96C172.523 28 171.203 26.6533 170.243 24.92C169.31 23.1867 168.843 21.1867 168.843 18.92C168.843 16.6267 169.31 14.6133 170.243 12.88C171.177 11.1467 172.483 9.81333 174.163 8.88C175.843 7.94667 177.777 7.48 179.963 7.48C182.07 7.48 183.95 7.93333 185.603 8.84C187.283 9.74667 188.577 11.04 189.483 12.72C190.417 14.3733 190.883 16.28 190.883 18.44ZM185.083 16.84C185.057 15.4 184.537 14.2533 183.523 13.4C182.51 12.52 181.27 12.08 179.803 12.08C178.417 12.08 177.243 12.5067 176.283 13.36C175.35 14.1867 174.777 15.3467 174.563 16.84H185.083ZM211.022 12.44V23.16C211.022 23.9067 211.196 24.4533 211.542 24.8C211.916 25.12 212.529 25.28 213.382 25.28H215.982V30H212.462C207.742 30 205.382 27.7067 205.382 23.12V12.44H202.742V7.84H205.382V2.36H211.022V7.84H215.982V12.44H211.022ZM229.85 30.36C227.717 30.36 225.797 29.8933 224.09 28.96C222.383 28 221.037 26.6533 220.05 24.92C219.09 23.1867 218.61 21.1867 218.61 18.92C218.61 16.6533 219.103 14.6533 220.09 12.92C221.103 11.1867 222.477 9.85333 224.21 8.92C225.943 7.96 227.877 7.48 230.01 7.48C232.143 7.48 234.077 7.96 235.81 8.92C237.543 9.85333 238.903 11.1867 239.89 12.92C240.903 14.6533 241.41 16.6533 241.41 18.92C241.41 21.1867 240.89 23.1867 239.85 24.92C238.837 26.6533 237.45 28 235.69 28.96C233.957 29.8933 232.01 30.36 229.85 30.36ZM229.85 25.48C230.863 25.48 231.81 25.24 232.69 24.76C233.597 24.2533 234.317 23.5067 234.85 22.52C235.383 21.5333 235.65 20.3333 235.65 18.92C235.65 16.8133 235.09 15.2 233.97 14.08C232.877 12.9333 231.53 12.36 229.93 12.36C228.33 12.36 226.983 12.9333 225.89 14.08C224.823 15.2 224.29 16.8133 224.29 18.92C224.29 21.0267 224.81 22.6533 225.85 23.8C226.917 24.92 228.25 25.48 229.85 25.48Z" fill="#4C74D9"/>
</svg>