<svg width="149" height="83" viewBox="0 0 149 83" fill="none" xmlns="http://www.w3.org/2000/svg">
<path d="M4.16 63V16.92H12.352V63H4.16Z" fill="#4C74D9"/>
<path d="M72.6 53.528C71.064 53.528 69.6347 53.3573 68.312 53.016L65.944 55.384C66.6693 55.768 67.6507 56.088 68.888 56.344C70.1253 56.6 72.1307 56.856 74.904 57.112C79.128 57.496 82.2 58.4987 84.12 60.12C86.04 61.7413 87 63.9813 87 66.84C87 68.7173 86.488 70.488 85.464 72.152C84.44 73.8587 82.8613 75.224 80.728 76.248C78.5947 77.3147 75.864 77.848 72.536 77.848C68.0133 77.848 64.3653 76.9947 61.592 75.288C58.8187 73.624 57.432 71.1067 57.432 67.736C57.432 64.8773 58.8187 62.4027 61.592 60.312C60.7387 59.928 59.992 59.5227 59.352 59.096C58.7547 58.6693 58.2213 58.2213 57.752 57.752V56.28L63.32 50.392C60.8453 48.216 59.608 45.4213 59.608 42.008C59.608 39.8747 60.12 37.9333 61.144 36.184C62.2107 34.4347 63.704 33.048 65.624 32.024C67.544 31 69.8693 30.488 72.6 30.488C74.392 30.488 76.056 30.744 77.592 31.256H89.624V36.248L84.184 36.632C85.0373 38.2533 85.464 40.0453 85.464 42.008C85.464 44.1413 84.952 46.0827 83.928 47.832C82.904 49.5813 81.4107 50.968 79.448 51.992C77.528 53.016 75.2453 53.528 72.6 53.528ZM72.6 47.256C74.264 47.256 75.6293 46.808 76.696 45.912C77.8053 45.016 78.36 43.736 78.36 42.072C78.36 40.408 77.8053 39.128 76.696 38.232C75.6293 37.336 74.264 36.888 72.6 36.888C70.8507 36.888 69.4427 37.336 68.376 38.232C67.3093 39.128 66.776 40.408 66.776 42.072C66.776 43.736 67.3093 45.016 68.376 45.912C69.4427 46.808 70.8507 47.256 72.6 47.256ZM64.92 66.904C64.92 68.4827 65.6453 69.656 67.096 70.424C68.5893 71.2347 70.4027 71.64 72.536 71.64C74.584 71.64 76.248 71.2133 77.528 70.36C78.808 69.5493 79.448 68.44 79.448 67.032C79.448 65.88 79.0213 64.92 78.168 64.152C77.3573 63.384 75.7147 62.9147 73.24 62.744C71.4907 62.616 69.8693 62.424 68.376 62.168C67.1387 62.8507 66.2427 63.5973 65.688 64.408C65.176 65.2187 64.92 66.0507 64.92 66.904ZM100.414 26.328C98.9202 26.328 97.6828 25.88 96.7015 24.984C95.7628 24.088 95.2935 22.9573 95.2935 21.592C95.2935 20.2267 95.7628 19.1173 96.7015 18.264C97.6828 17.368 98.9202 16.92 100.414 16.92C101.907 16.92 103.123 17.368 104.062 18.264C105.043 19.1173 105.534 20.2267 105.534 21.592C105.534 22.9573 105.043 24.088 104.062 24.984C103.123 25.88 101.907 26.328 100.414 26.328ZM96.3175 63V31.256H104.51V63H96.3175ZM113.46 63V31.256H120.692L121.332 36.632C122.313 34.7547 123.721 33.2613 125.556 32.152C127.433 31.0427 129.631 30.488 132.148 30.488C136.073 30.488 139.124 31.7253 141.3 34.2C143.476 36.6747 144.564 40.3013 144.564 45.08V63H136.372V45.848C136.372 43.1173 135.817 41.0267 134.708 39.576C133.599 38.1253 131.871 37.4 129.524 37.4C127.22 37.4 125.321 38.2107 123.828 39.832C122.377 41.4533 121.652 43.7147 121.652 46.616V63H113.46Z" fill="#4C74D9"/>
<path fill-rule="evenodd" clip-rule="evenodd" d="M17 44.5C17 54.574 25.0778 62.7405 35.0422 62.7405C37.7999 62.7405 40.413 62.1151 42.7505 60.9968C44.9785 60.6206 47.9168 60.443 51.2738 61.1695C53.0057 61.5443 54.4387 61.8319 55.0671 61.5511C55.7432 61.2489 55.5386 60.3488 55.2658 59.9649L51.4713 52.0498C52.5074 49.7492 53.0845 47.1927 53.0845 44.5C53.0845 34.4261 45.0067 26.2595 35.0422 26.2595C25.0778 26.2595 17 34.4261 17 44.5ZM27.3389 46.4828C28.3244 46.4828 29.1233 45.6839 29.1233 44.6984C29.1233 43.7129 28.3244 42.914 27.3389 42.914C26.3534 42.914 25.5545 43.7129 25.5545 44.6984C25.5545 45.6839 26.3534 46.4828 27.3389 46.4828ZM36.6572 44.6984C36.6572 45.6839 35.8583 46.4828 34.8728 46.4828C33.8873 46.4828 33.0884 45.6839 33.0884 44.6984C33.0884 43.7129 33.8873 42.914 34.8728 42.914C35.8583 42.914 36.6572 43.7129 36.6572 44.6984ZM42.4073 46.4828C43.3928 46.4828 44.1917 45.6839 44.1917 44.6984C44.1917 43.7129 43.3928 42.914 42.4073 42.914C41.4218 42.914 40.6229 43.7129 40.6229 44.6984C40.6229 45.6839 41.4218 46.4828 42.4073 46.4828Z" fill="#4C74D9"/>
</svg>
