<svg width="263" height="83" viewBox="0 0 263 83" fill="none" xmlns="http://www.w3.org/2000/svg">
<path d="M4.352 63V18.2H20.8C24.384 18.2 27.328 18.8187 29.632 20.056C31.9787 21.2507 33.728 22.8933 34.88 24.984C36.032 27.032 36.608 29.3147 36.608 31.832C36.608 34.5627 35.8827 37.0587 34.432 39.32C33.024 41.5813 30.8053 43.224 27.776 44.248L37.056 63H27.648L19.328 45.336H12.544V63H4.352ZM12.544 39.32H20.288C23.0187 39.32 25.024 38.6587 26.304 37.336C27.584 36.0133 28.224 34.264 28.224 32.088C28.224 29.9547 27.584 28.248 26.304 26.968C25.0667 25.688 23.04 25.048 20.224 25.048H12.544V39.32Z" fill="#4C74D9"/>
<path d="M98.9688 53.528C97.4328 53.528 96.0034 53.3573 94.6808 53.016L92.3128 55.384C93.0381 55.768 94.0194 56.088 95.2568 56.344C96.4941 56.6 98.4994 56.856 101.273 57.112C105.497 57.496 108.569 58.4987 110.489 60.12C112.409 61.7413 113.369 63.9813 113.369 66.84C113.369 68.7173 112.857 70.488 111.833 72.152C110.809 73.8587 109.23 75.224 107.097 76.248C104.963 77.3147 102.233 77.848 98.9048 77.848C94.3821 77.848 90.7341 76.9947 87.9608 75.288C85.1874 73.624 83.8008 71.1067 83.8008 67.736C83.8008 64.8773 85.1874 62.4027 87.9608 60.312C87.1074 59.928 86.3608 59.5227 85.7208 59.096C85.1234 58.6693 84.5901 58.2213 84.1208 57.752V56.28L89.6888 50.392C87.2141 48.216 85.9768 45.4213 85.9768 42.008C85.9768 39.8747 86.4888 37.9333 87.5128 36.184C88.5794 34.4347 90.0728 33.048 91.9928 32.024C93.9128 31 96.2381 30.488 98.9688 30.488C100.761 30.488 102.425 30.744 103.961 31.256H115.993V36.248L110.553 36.632C111.406 38.2533 111.833 40.0453 111.833 42.008C111.833 44.1413 111.321 46.0827 110.297 47.832C109.273 49.5813 107.779 50.968 105.817 51.992C103.897 53.016 101.614 53.528 98.9688 53.528ZM98.9688 47.256C100.633 47.256 101.998 46.808 103.065 45.912C104.174 45.016 104.729 43.736 104.729 42.072C104.729 40.408 104.174 39.128 103.065 38.232C101.998 37.336 100.633 36.888 98.9688 36.888C97.2194 36.888 95.8114 37.336 94.7448 38.232C93.6781 39.128 93.1448 40.408 93.1448 42.072C93.1448 43.736 93.6781 45.016 94.7448 45.912C95.8114 46.808 97.2194 47.256 98.9688 47.256ZM91.2888 66.904C91.2888 68.4827 92.0141 69.656 93.4648 70.424C94.9581 71.2347 96.7714 71.64 98.9048 71.64C100.953 71.64 102.617 71.2133 103.897 70.36C105.177 69.5493 105.817 68.44 105.817 67.032C105.817 65.88 105.39 64.92 104.537 64.152C103.726 63.384 102.083 62.9147 99.6088 62.744C97.8594 62.616 96.2381 62.424 94.7448 62.168C93.5074 62.8507 92.6114 63.5973 92.0568 64.408C91.5448 65.2187 91.2888 66.0507 91.2888 66.904ZM126.782 26.328C125.289 26.328 124.052 25.88 123.07 24.984C122.132 24.088 121.662 22.9573 121.662 21.592C121.662 20.2267 122.132 19.1173 123.07 18.264C124.052 17.368 125.289 16.92 126.782 16.92C128.276 16.92 129.492 17.368 130.43 18.264C131.412 19.1173 131.902 20.2267 131.902 21.592C131.902 22.9573 131.412 24.088 130.43 24.984C129.492 25.88 128.276 26.328 126.782 26.328ZM122.686 63V31.256H130.878V63H122.686ZM152.949 63.768C150.133 63.768 147.658 63.32 145.525 62.424C143.391 61.4853 141.685 60.2053 140.405 58.584C139.125 56.9627 138.357 55.0853 138.101 52.952H146.357C146.613 54.1893 147.295 55.256 148.405 56.152C149.557 57.0053 151.029 57.432 152.821 57.432C154.613 57.432 155.914 57.0693 156.725 56.344C157.578 55.6187 158.005 54.7867 158.005 53.848C158.005 52.4827 157.407 51.5653 156.213 51.096C155.018 50.584 153.354 50.0933 151.221 49.624C149.855 49.3253 148.469 48.9627 147.061 48.536C145.653 48.1093 144.351 47.576 143.157 46.936C142.005 46.2533 141.066 45.4 140.341 44.376C139.615 43.3093 139.253 42.008 139.253 40.472C139.253 37.656 140.362 35.288 142.581 33.368C144.842 31.448 147.999 30.488 152.053 30.488C155.807 30.488 158.794 31.3627 161.013 33.112C163.274 34.8613 164.618 37.272 165.045 40.344H157.301C156.831 37.9973 155.061 36.824 151.989 36.824C150.453 36.824 149.258 37.1227 148.405 37.72C147.594 38.3173 147.189 39.064 147.189 39.96C147.189 40.8987 147.807 41.6453 149.045 42.2C150.282 42.7547 151.925 43.2667 153.973 43.736C156.191 44.248 158.218 44.824 160.053 45.464C161.93 46.0613 163.423 46.9787 164.533 48.216C165.642 49.4107 166.197 51.1387 166.197 53.4C166.239 55.3627 165.727 57.1333 164.661 58.712C163.594 60.2907 162.058 61.528 160.053 62.424C158.047 63.32 155.679 63.768 152.949 63.768ZM186.998 63C183.67 63 181.003 62.1893 178.998 60.568C176.992 58.9467 175.99 56.0667 175.99 51.928V38.104H170.55V31.256H175.99L176.95 22.744H184.182V31.256H192.758V38.104H184.182V51.992C184.182 53.528 184.502 54.5947 185.142 55.192C185.824 55.7467 186.976 56.024 188.598 56.024H192.566V63H186.998Z" fill="#4C74D9"/>
<path d="M241.16 63V31.256H248.456L249.224 37.208C250.376 35.16 251.933 33.5387 253.896 32.344C255.901 31.1067 258.248 30.488 260.936 30.488V39.128H258.632C256.84 39.128 255.24 39.4053 253.832 39.96C252.424 40.5147 251.315 41.4747 250.504 42.84C249.736 44.2053 249.352 46.104 249.352 48.536V63H241.16Z" fill="#4C74D9"/>
<path fill-rule="evenodd" clip-rule="evenodd" d="M43 45.2405C43 55.3145 51.0778 63.481 61.0422 63.481C63.7999 63.481 66.413 62.8555 68.7505 61.7373C70.9785 61.361 73.9168 61.1834 77.2738 61.91C79.0057 62.2848 80.4387 62.5724 81.0671 62.2915C81.7432 61.9894 81.5386 61.0893 81.2658 60.7054L77.4713 52.7903C78.5074 50.4897 79.0845 47.9332 79.0845 45.2405C79.0845 35.1666 71.0067 27 61.0422 27C51.0778 27 43 35.1666 43 45.2405ZM53.3389 47.2233C54.3244 47.2233 55.1233 46.4244 55.1233 45.4389C55.1233 44.4534 54.3244 43.6545 53.3389 43.6545C52.3534 43.6545 51.5545 44.4534 51.5545 45.4389C51.5545 46.4244 52.3534 47.2233 53.3389 47.2233ZM62.6572 45.4389C62.6572 46.4244 61.8583 47.2233 60.8728 47.2233C59.8873 47.2233 59.0884 46.4244 59.0884 45.4389C59.0884 44.4534 59.8873 43.6545 60.8728 43.6545C61.8583 43.6545 62.6572 44.4534 62.6572 45.4389ZM68.4073 47.2233C69.3928 47.2233 70.1917 46.4244 70.1917 45.4389C70.1917 44.4534 69.3928 43.6545 68.4073 43.6545C67.4218 43.6545 66.6229 44.4534 66.6229 45.4389C66.6229 46.4244 67.4218 47.2233 68.4073 47.2233Z" fill="#4C74D9"/>
<path fill-rule="evenodd" clip-rule="evenodd" d="M198 45.2405C198 55.3145 206.078 63.481 216.042 63.481C218.8 63.481 221.413 62.8555 223.75 61.7373C225.979 61.361 228.917 61.1834 232.274 61.91C234.006 62.2848 235.439 62.5724 236.067 62.2915C236.743 61.9894 236.539 61.0893 236.266 60.7054L232.471 52.7903C233.507 50.4897 234.084 47.9332 234.084 45.2405C234.084 35.1666 226.007 27 216.042 27C206.078 27 198 35.1666 198 45.2405ZM208.339 47.2232C209.324 47.2232 210.123 46.4243 210.123 45.4388C210.123 44.4533 209.324 43.6544 208.339 43.6544C207.353 43.6544 206.555 44.4533 206.555 45.4388C206.555 46.4243 207.353 47.2232 208.339 47.2232ZM217.657 45.4388C217.657 46.4243 216.858 47.2232 215.873 47.2232C214.887 47.2232 214.088 46.4243 214.088 45.4388C214.088 44.4533 214.887 43.6544 215.873 43.6544C216.858 43.6544 217.657 44.4533 217.657 45.4388ZM223.407 47.2232C224.393 47.2232 225.192 46.4243 225.192 45.4388C225.192 44.4533 224.393 43.6544 223.407 43.6544C222.422 43.6544 221.623 44.4533 221.623 45.4388C221.623 46.4243 222.422 47.2232 223.407 47.2232Z" fill="#4C74D9"/>
</svg>
